<?xml version="1.0" encoding="UTF-8"?><svg xmlns="http://www.w3.org/2000/svg" style="display: none;"><symbol id="leaf" viewBox="0 0 128 128"><path d="m19 113c27-18 55-37 66-65M40 99c-11-7-41-40 62-84 30 72-38 97-62 84"/></symbol><symbol id="sun" viewBox="0 0 128 128"><circle cx="64" cy="64" r="26" /><path d="m39 89-7 7m7-57-7-7m64 64-7-7m7-57-7 7M30 64H17m94 0H98M64 98v13m0-94v13" /></symbol><symbol id="info2" viewBox="0 0 128 128"><path d="M55 57h9V96M52 96H76M64 45a5 5-90 010-12 5 5-90 010 12"/></symbol><symbol id="moon" viewBox="0 0 128 128"><path d="m74 40 4 10 10 4-10 4-4 10-4-10-10-4 10-4z" id="sic"/><use href="#sic" x="24" y="-24" /></symbol></svg>
